{"canvas_config":{"background":null,"height":1920,"ratio":"original","width":1920},"color_space":0,"config":{"adjust_max_index":1,"attachment_info":[],"combination_max_index":1,"export_range":null,"extract_audio_last_index":1,"lyrics_recognition_id":"","lyrics_sync":true,"lyrics_taskinfo":[],"maintrack_adsorb":true,"material_save_mode":0,"multi_language_current":"none","multi_language_list":[],"multi_language_main":"none","multi_language_mode":"none","original_sound_last_index":1,"record_audio_last_index":1,"sticker_max_index":1,"subtitle_keywords_config":null,"subtitle_recognition_id":"","subtitle_sync":true,"subtitle_taskinfo":[],"system_font_list":[],"video_mute":false,"zoom_info_params":null},"cover":null,"create_time":0,"duration":102400000,"extra_info":null,"fps":30.0,"free_render_index_mode_on":false,"group_container":null,"id":"3806BF93-D664-45f1-AB4C-DCC95071BFAE","is_drop_frame_timecode":false,"keyframe_graph_list":[],"keyframes":{"adjusts":[],"audios":[],"effects":[],"filters":[],"handwrites":[],"stickers":[],"texts":[],"videos":[]},"last_modified_platform":{"app_id":359289,"app_source":"cc","app_version":"5.9.0","device_id":"c87871b01ed15b67aca19f3efea983b4","hard_disk_id":"98697f5b2672733057711c84e4b517c3","mac_address":"09861091e4eef2367b35d8703476edfc,3ab780bc59d11a00e1ba676c31de1115","os":"windows","os_version":"10.0.26100"},"lyrics_effects":[],"materials":{"ai_translates":[],"audio_balances":[],"audio_effects":[],"audio_fades":[],"audio_track_indexes":[],"audios":[{"ai_music_generate_scene":0,"ai_music_type":0,"aigc_history_id":"","aigc_item_id":"","app_id":0,"category_id":"","category_name":"local","check_flag":1,"copyright_limit_type":"none","duration":102400000,"effect_id":"","formula_id":"","id":"6CCB5F4D-EC08-4e3a-8C0D-16D276698F0B","intensifies_path":"","is_ai_clone_tone":false,"is_ai_clone_tone_post":false,"is_text_edit_overdub":false,"is_ugc":false,"local_material_id":"6bc24d21-ac5d-4c02-bd0f-58dce6901914","lyric_type":0,"moyin_emotion":"","music_id":"587c5dbe-841d-4853-80d2-a4adc8dbe068","music_source":"","name":"buried-escalade.mp3","path":"C:/Users/Computer/dev/music/maven.github-repo-downloader-demo/target/mixcraft.buried-escalade/buried-escalade.mp3","pgc_id":"","pgc_name":"","query":"","request_id":"","resource_id":"","search_id":"","similiar_music_info":{"original_song_id":"","original_song_name":""},"sound_separate_type":"","source_from":"","source_platform":0,"team_id":"","text_id":"","third_resource_id":"","tone_category_id":"","tone_category_name":"","tone_effect_id":"","tone_effect_name":"","tone_emotion_name_key":"","tone_emotion_role":"","tone_emotion_scale":0.0,"tone_emotion_selection":"","tone_emotion_style":"","tone_platform":"","tone_second_category_id":"","tone_second_category_name":"","tone_speaker":"","tone_type":"","tts_generate_scene":"","tts_task_id":"","type":"extract_music","video_id":"","wave_points":[]}],"beats":[{"ai_beats":{"beat_speed_infos":[],"beats_path":"","beats_url":"","melody_path":"","melody_percents":[0.0],"melody_url":""},"enable_ai_beats":false,"gear":404,"gear_count":0,"id":"CDA5A054-49C1-4079-9DEB-13300E31F9FB","mode":404,"type":"beats","user_beats":[],"user_delete_ai_beats":null}],"canvases":[{"album_image":"","blur":0.0,"color":"","id":"8DEC9576-41B5-43b8-88AC-13B351750954","image":"","image_id":"","image_name":"","source_platform":0,"team_id":"","type":"canvas_color"},{"album_image":"","blur":0.0,"color":"","id":"0EE9D6BE-B56E-4c01-BE09-AD37C068D6BF","image":"","image_id":"","image_name":"","source_platform":0,"team_id":"","type":"canvas_color"},{"album_image":"","blur":0.0,"color":"","id":"2E8C2773-4B23-43dd-8413-4B93E3E442B6","image":"","image_id":"","image_name":"","source_platform":0,"team_id":"","type":"canvas_color"},{"album_image":"","blur":0.0,"color":"","id":"BC24AD01-3E6B-4259-B41A-D7D1EAE2A4DC","image":"","image_id":"","image_name":"","source_platform":0,"team_id":"","type":"canvas_color"},{"album_image":"","blur":0.0,"color":"","id":"2F0EDC55-16D3-4f55-A790-0F7DCEE563EE","image":"","image_id":"","image_name":"","source_platform":0,"team_id":"","type":"canvas_color"},{"album_image":"","blur":0.0,"color":"","id":"B3BE8C03-D586-4035-B883-703D52424232","image":"","image_id":"","image_name":"","source_platform":0,"team_id":"","type":"canvas_color"},{"album_image":"","blur":0.0,"color":"","id":"B6DD1B26-20A5-455e-AAC2-3D5DEA9ED418","image":"","image_id":"","image_name":"","source_platform":0,"team_id":"","type":"canvas_color"},{"album_image":"","blur":0.0,"color":"","id":"7B540D88-B001-415c-9CA0-A96E94269CA8","image":"","image_id":"","image_name":"","source_platform":0,"team_id":"","type":"canvas_color"},{"album_image":"","blur":0.0,"color":"","id":"D40563B3-A767-4a47-8B0C-FA3A8DBDC53D","image":"","image_id":"","image_name":"","source_platform":0,"team_id":"","type":"canvas_color"},{"album_image":"","blur":0.0,"color":"","id":"8D33083E-8A13-4662-A97F-6D715FF24A1B","image":"","image_id":"","image_name":"","source_platform":0,"team_id":"","type":"canvas_color"},{"album_image":"","blur":0.0,"color":"","id":"CECD6D81-B11B-4fca-A8A9-E9E365BF0E5A","image":"","image_id":"","image_name":"","source_platform":0,"team_id":"","type":"canvas_color"},{"album_image":"","blur":0.0,"color":"","id":"4F7192B8-49F8-4c11-B432-E39FB4F6EFC0","image":"","image_id":"","image_name":"","source_platform":0,"team_id":"","type":"canvas_color"}],"chromas":[],"color_curves":[],"common_mask":[],"digital_humans":[],"drafts":[],"effects":[],"flowers":[],"green_screens":[],"handwrites":[],"hsl":[],"images":[],"log_color_wheels":[],"loudnesses":[],"manual_beautys":[],"manual_deformations":[],"material_animations":[{"animations":[],"id":"EA18BF81-C556-4b74-84E8-9C15F979330F","multi_language_current":"none","type":"sticker_animation"},{"animations":[],"id":"DB1FEE1F-BA22-444f-A445-3EB8D2FA08EA","multi_language_current":"none","type":"sticker_animation"},{"animations":[],"id":"44F96E26-64D8-4f72-8060-D2242DEE3060","multi_language_current":"none","type":"sticker_animation"},{"animations":[],"id":"5AD42145-FC26-43eb-9A6B-D896402EA2DE","multi_language_current":"none","type":"sticker_animation"},{"animations":[],"id":"8E3CDA0E-7902-4ec7-9FFE-1FA616DD9BA1","multi_language_current":"none","type":"sticker_animation"},{"animations":[],"id":"2C880FDB-4C3F-4ed2-92B5-08CFBFFDF988","multi_language_current":"none","type":"sticker_animation"},{"animations":[],"id":"3B0E5D58-26CD-418d-87C6-8F6697782221","multi_language_current":"none","type":"sticker_animation"},{"animations":[],"id":"2801E962-77B5-4d2f-A7FF-50E4DF5B1EED","multi_language_current":"none","type":"sticker_animation"},{"animations":[],"id":"D1AF0013-4C5A-4a19-B963-DF7302E6CA86","multi_language_current":"none","type":"sticker_animation"},{"animations":[],"id":"C57FD705-251E-4f4c-A4C8-ADF6B22AD1CB","multi_language_current":"none","type":"sticker_animation"}],"material_colors":[],"multi_language_refs":[],"placeholder_infos":[{"error_path":"","error_text":"","id":"1148DDE4-B9D9-4a7d-A5CB-7121D616BD21","meta_type":"none","res_path":"","res_text":"","type":"placeholder_info"},{"error_path":"","error_text":"","id":"8EF86515-59FD-4160-90C7-81CA1693F7B0","meta_type":"none","res_path":"","res_text":"","type":"placeholder_info"},{"error_path":"","error_text":"","id":"F812A189-4227-4a16-B153-31979A29E289","meta_type":"none","res_path":"","res_text":"","type":"placeholder_info"},{"error_path":"","error_text":"","id":"FD120C25-EF98-484b-8C87-037BD70E1512","meta_type":"none","res_path":"","res_text":"","type":"placeholder_info"},{"error_path":"","error_text":"","id":"F347575F-BC0B-417a-ADB4-BA9E04A8EF14","meta_type":"none","res_path":"","res_text":"","type":"placeholder_info"},{"error_path":"","error_text":"","id":"B5219FD9-1DD7-43ca-A61C-D1F589B91DC5","meta_type":"none","res_path":"","res_text":"","type":"placeholder_info"},{"error_path":"","error_text":"","id":"92EF2936-4513-4a7e-93C7-63F849D512E5","meta_type":"none","res_path":"","res_text":"","type":"placeholder_info"},{"error_path":"","error_text":"","id":"B6E588A0-BB8C-469f-8A72-5CEEEA1CB4E4","meta_type":"none","res_path":"","res_text":"","type":"placeholder_info"},{"error_path":"","error_text":"","id":"6D45502B-C940-4bbd-A949-E30AB752550B","meta_type":"none","res_path":"","res_text":"","type":"placeholder_info"},{"error_path":"","error_text":"","id":"20D15B8E-39F1-4364-B1C0-08B71155DBF8","meta_type":"none","res_path":"","res_text":"","type":"placeholder_info"},{"error_path":"","error_text":"","id":"490F5117-8B79-48d7-9A8D-F48A18C9CD44","meta_type":"none","res_path":"","res_text":"","type":"placeholder_info"},{"error_path":"","error_text":"","id":"ECB060A3-DAEA-4e80-8FC3-F8F1335C2195","meta_type":"none","res_path":"","res_text":"","type":"placeholder_info"},{"error_path":"","error_text":"","id":"0C914C98-7C0B-4277-B4BB-67A6FBC64CE9","meta_type":"none","res_path":"","res_text":"","type":"placeholder_info"}],"placeholders":[],"plugin_effects":[],"primary_color_wheels":[],"realtime_denoises":[],"shapes":[],"smart_crops":[],"smart_relights":[],"sound_channel_mappings":[{"audio_channel_mapping":0,"id":"87DA1CC9-FA32-491a-873F-518DAF657820","is_config_open":false,"type":"none"},{"audio_channel_mapping":0,"id":"3D252679-E663-43d2-B77D-E50071782147","is_config_open":false,"type":"none"},{"audio_channel_mapping":0,"id":"A84475E2-E5AD-40da-8E20-114F79033CDD","is_config_open":false,"type":"none"},{"audio_channel_mapping":0,"id":"841931FE-34C5-4792-9945-B34170075C73","is_config_open":false,"type":"none"},{"audio_channel_mapping":0,"id":"7A34A022-3261-482e-9903-6E75FBBD6942","is_config_open":false,"type":"none"},{"audio_channel_mapping":0,"id":"8E6A1AA4-25C3-416b-AA68-5F63D3EF07CF","is_config_open":false,"type":"none"},{"audio_channel_mapping":0,"id":"8D12B904-45FA-43cd-953B-183FD1E35D93","is_config_open":false,"type":"none"},{"audio_channel_mapping":0,"id":"0FACC945-1FE2-4568-8E8F-D8837748BC38","is_config_open":false,"type":"none"},{"audio_channel_mapping":0,"id":"AE0178A6-D446-44b9-A357-F4C522AF9911","is_config_open":false,"type":"none"},{"audio_channel_mapping":0,"id":"AFEC85A6-7751-48dd-9B89-33981E08771A","is_config_open":false,"type":"none"},{"audio_channel_mapping":0,"id":"13F9C95D-1761-4299-B373-93F27DA0DD88","is_config_open":false,"type":"none"},{"audio_channel_mapping":0,"id":"71D33748-A4F5-45c9-A052-86A0799AD709","is_config_open":false,"type":"none"},{"audio_channel_mapping":0,"id":"509A9136-CA4C-492d-A348-B1CEC292436D","is_config_open":false,"type":"none"}],"speeds":[{"curve_speed":null,"id":"E3354231-B172-42ed-9EAD-92E665F00508","mode":0,"speed":1.0,"type":"speed"},{"curve_speed":null,"id":"7195BFE1-0070-44e5-866F-A9A2B2A155A7","mode":0,"speed":1.0,"type":"speed"},{"curve_speed":null,"id":"1CA72DAB-B6EA-4b19-B5D9-6273D48F8290","mode":0,"speed":1.0,"type":"speed"},{"curve_speed":null,"id":"FA177366-8B53-4c33-B41C-71224281C958","mode":0,"speed":1.0,"type":"speed"},{"curve_speed":null,"id":"FB595FB9-19EF-4cbe-8768-5FD6CA8D389C","mode":0,"speed":1.0,"type":"speed"},{"curve_speed":null,"id":"D0151180-2629-4ede-AA87-4D7D1C31DB94","mode":0,"speed":1.0,"type":"speed"},{"curve_speed":null,"id":"C2C4F284-88E0-46d1-BEB4-A86CC9F0D391","mode":0,"speed":1.0,"type":"speed"},{"curve_speed":null,"id":"6DFD7E6B-239C-4d54-8F1B-7315CC89850E","mode":0,"speed":1.0,"type":"speed"},{"curve_speed":null,"id":"75A6CF80-F15D-4b60-A737-29CCB799541E","mode":0,"speed":1.0,"type":"speed"},{"curve_speed":null,"id":"8270E83C-8BD5-4e23-A4DE-1C2A25F7B5CC","mode":0,"speed":1.0,"type":"speed"},{"curve_speed":null,"id":"0D5586BA-DC9E-4817-9631-F3BDD9617E40","mode":0,"speed":1.0,"type":"speed"},{"curve_speed":null,"id":"2DBE0C1E-9712-4c38-A7FD-ED6A99AE5E50","mode":0,"speed":1.0,"type":"speed"},{"curve_speed":null,"id":"18697C29-72CF-4698-9B02-2030764C5283","mode":0,"speed":1.0,"type":"speed"}],"stickers":[],"tail_leaders":[],"text_templates":[],"texts":[],"time_marks":[],"transitions":[{"category_id":"27186","category_name":"hot3","duration":466666,"effect_id":"9291080","id":"81B5D1A3-7A3A-4cd4-B405-7973A805B5F6","is_overlap":false,"name":"Glare III","path":"C:/Users/Computer/AppData/Local/CapCut/User Data/Cache/effect/9291080/5ed29701053e9f7640ecf8dcfc34c7cc","platform":"all","request_id":"02173930047272400000000000000000000ffff0a00af1555ee94","resource_id":"6952698136951263746","source_platform":0,"third_resource_id":"0","type":"transition"},{"category_id":"27186","category_name":"Trending","duration":466666,"effect_id":"9290995","id":"BFD6E733-851D-4fbf-B678-AAA70D531049","is_overlap":false,"name":"Black Fade","path":"C:/Users/Computer/AppData/Local/CapCut/User Data/Cache/effect/9290995/3bca53e9f3dfa2c184fbee96438ea097","platform":"all","request_id":"02173930047272400000000000000000000ffff0a00af1555ee94","resource_id":"6724239388189921806","source_platform":0,"third_resource_id":"0","type":"transition"}],"video_effects":[],"video_trackings":[],"videos":[{"aigc_history_id":"","aigc_item_id":"","aigc_type":"none","audio_fade":null,"beauty_body_preset_id":"","beauty_face_auto_preset":{"name":"","preset_id":"","rate_map":""},"beauty_face_auto_preset_infos":[],"beauty_face_preset_infos":[],"cartoon_path":"","category_id":"","category_name":"local","check_flag":62978047,"crop":{"lower_left_x":0.0,"lower_left_y":1.0,"lower_right_x":1.0,"lower_right_y":1.0,"upper_left_x":0.0,"upper_left_y":0.0,"upper_right_x":1.0,"upper_right_y":0.0},"crop_ratio":"free","crop_scale":1.0,"duration":10000000,"extra_type_option":0,"formula_id":"","freeze":null,"has_audio":false,"has_sound_separated":false,"height":480,"id":"952AE39B-0478-48bf-9523-70E9CA6D04D0","intensifies_audio_path":"","intensifies_path":"","is_ai_generate_content":false,"is_copyright":false,"is_text_edit_overdub":false,"is_unified_beauty_mode":false,"live_photo_cover_path":"","live_photo_timestamp":-1,"local_id":"","local_material_from":"","local_material_id":"f734d0fc-0b73-4436-bbac-0df072b45756","material_id":"","material_name":"1.0_20250205_1446_Starlit Snow Camping_storyboard_01jkbtch6gfptb70xt00qb8k79.mp4","material_url":"","matting":{"custom_matting_id":"","enable_matting_stroke":false,"expansion":0,"feather":0,"flag":0,"has_use_quick_brush":false,"has_use_quick_eraser":false,"interactiveTime":[],"path":"","reverse":false,"strokes":[]},"media_path":"","multi_camera_info":null,"object_locked":null,"origin_material_id":"","path":"C:/Users/Computer/Downloads/1.0_20250205_1446_Starlit Snow Camping_storyboard_01jkbtch6gfptb70xt00qb8k79.mp4","picture_from":"none","picture_set_category_id":"","picture_set_category_name":"","request_id":"","reverse_intensifies_path":"","reverse_path":"","smart_match_info":null,"smart_motion":null,"source":0,"source_platform":0,"stable":{"matrix_path":"","stable_level":0,"time_range":{"duration":0,"start":0}},"team_id":"","type":"video","video_algorithm":{"ai_background_configs":[],"ai_expression_driven":null,"ai_motion_driven":null,"aigc_generate":null,"algorithms":[],"complement_frame_config":null,"deflicker":null,"gameplay_configs":[],"motion_blur_config":null,"mouth_shape_driver":null,"noise_reduction":null,"path":"","quality_enhance":null,"smart_complement_frame":null,"super_resolution":null,"time_range":null},"width":480},{"aigc_history_id":"","aigc_item_id":"","aigc_type":"none","audio_fade":null,"beauty_body_preset_id":"","beauty_face_auto_preset":{"name":"","preset_id":"","rate_map":""},"beauty_face_auto_preset_infos":[],"beauty_face_preset_infos":[],"cartoon_path":"","category_id":"","category_name":"local","check_flag":62978047,"crop":{"lower_left_x":0.0,"lower_left_y":1.0,"lower_right_x":1.0,"lower_right_y":1.0,"upper_left_x":0.0,"upper_left_y":0.0,"upper_right_x":1.0,"upper_right_y":0.0},"crop_ratio":"free","crop_scale":1.0,"duration":10000000,"extra_type_option":0,"formula_id":"","freeze":null,"has_audio":false,"has_sound_separated":false,"height":480,"id":"D34AE0FD-C3FF-4414-B8A1-BA8DEBFDBDF8","intensifies_audio_path":"","intensifies_path":"","is_ai_generate_content":false,"is_copyright":false,"is_text_edit_overdub":false,"is_unified_beauty_mode":false,"live_photo_cover_path":"","live_photo_timestamp":-1,"local_id":"","local_material_from":"","local_material_id":"e82d5c43-a25e-42b6-9447-19bebe4e8943","material_id":"","material_name":"1.1_20250212_1234_Nighttime Explorations_storyboard_01jkxkke76edvskhwthhr2e22w.mp4","material_url":"","matting":{"custom_matting_id":"","enable_matting_stroke":false,"expansion":0,"feather":0,"flag":0,"has_use_quick_brush":false,"has_use_quick_eraser":false,"interactiveTime":[],"path":"","reverse":false,"strokes":[]},"media_path":"","multi_camera_info":null,"object_locked":null,"origin_material_id":"","path":"C:/Users/Computer/Downloads/1.1_20250212_1234_Nighttime Explorations_storyboard_01jkxkke76edvskhwthhr2e22w.mp4","picture_from":"none","picture_set_category_id":"","picture_set_category_name":"","request_id":"","reverse_intensifies_path":"","reverse_path":"","smart_match_info":null,"smart_motion":null,"source":0,"source_platform":0,"stable":{"matrix_path":"","stable_level":0,"time_range":{"duration":0,"start":0}},"team_id":"","type":"video","video_algorithm":{"ai_background_configs":[],"ai_expression_driven":null,"ai_motion_driven":null,"aigc_generate":null,"algorithms":[],"complement_frame_config":null,"deflicker":null,"gameplay_configs":[],"motion_blur_config":null,"mouth_shape_driver":null,"noise_reduction":null,"path":"","quality_enhance":null,"smart_complement_frame":null,"super_resolution":null,"time_range":{"duration":10000000,"start":0}},"width":480},{"aigc_history_id":"","aigc_item_id":"","aigc_type":"none","audio_fade":null,"beauty_body_preset_id":"","beauty_face_auto_preset":{"name":"","preset_id":"","rate_map":""},"beauty_face_auto_preset_infos":[],"beauty_face_preset_infos":[],"cartoon_path":"","category_id":"","category_name":"local","check_flag":62978047,"crop":{"lower_left_x":0.0,"lower_left_y":1.0,"lower_right_x":1.0,"lower_right_y":1.0,"upper_left_x":0.0,"upper_left_y":0.0,"upper_right_x":1.0,"upper_right_y":0.0},"crop_ratio":"free","crop_scale":1.0,"duration":10000000,"extra_type_option":0,"formula_id":"","freeze":null,"has_audio":false,"has_sound_separated":false,"height":480,"id":"736B708F-3387-4432-855C-9AB1A341974F","intensifies_audio_path":"","intensifies_path":"","is_ai_generate_content":false,"is_copyright":false,"is_text_edit_overdub":false,"is_unified_beauty_mode":false,"live_photo_cover_path":"","live_photo_timestamp":-1,"local_id":"","local_material_from":"","local_material_id":"6f1d9a8f-eb18-4af4-8d4d-b05d74b70589","material_id":"","material_name":"1.2_20250212_1232_Mountain Climbing Adventure_storyboard_01jkxkfbsre75t725xjz3d9yzd.mp4","material_url":"","matting":{"custom_matting_id":"","enable_matting_stroke":false,"expansion":0,"feather":0,"flag":0,"has_use_quick_brush":false,"has_use_quick_eraser":false,"interactiveTime":[],"path":"","reverse":false,"strokes":[]},"media_path":"","multi_camera_info":null,"object_locked":null,"origin_material_id":"","path":"C:/Users/Computer/Downloads/1.2_20250212_1232_Mountain Climbing Adventure_storyboard_01jkxkfbsre75t725xjz3d9yzd.mp4","picture_from":"none","picture_set_category_id":"","picture_set_category_name":"","request_id":"","reverse_intensifies_path":"","reverse_path":"","smart_match_info":null,"smart_motion":null,"source":0,"source_platform":0,"stable":{"matrix_path":"","stable_level":0,"time_range":{"duration":0,"start":0}},"team_id":"","type":"video","video_algorithm":{"ai_background_configs":[],"ai_expression_driven":null,"ai_motion_driven":null,"aigc_generate":null,"algorithms":[],"complement_frame_config":null,"deflicker":null,"gameplay_configs":[],"motion_blur_config":null,"mouth_shape_driver":null,"noise_reduction":null,"path":"","quality_enhance":null,"smart_complement_frame":null,"super_resolution":null,"time_range":{"duration":10000000,"start":0}},"width":480},{"aigc_history_id":"","aigc_item_id":"","aigc_type":"none","audio_fade":null,"beauty_body_preset_id":"","beauty_face_auto_preset":{"name":"","preset_id":"","rate_map":""},"beauty_face_auto_preset_infos":[],"beauty_face_preset_infos":[],"cartoon_path":"","category_id":"","category_name":"local","check_flag":62978047,"crop":{"lower_left_x":0.0,"lower_left_y":1.0,"lower_right_x":1.0,"lower_right_y":1.0,"upper_left_x":0.0,"upper_left_y":0.0,"upper_right_x":1.0,"upper_right_y":0.0},"crop_ratio":"free","crop_scale":1.0,"duration":10000000,"extra_type_option":0,"formula_id":"","freeze":null,"has_audio":false,"has_sound_separated":false,"height":480,"id":"B727E5E9-5775-4f34-B86E-F6A776A424DA","intensifies_audio_path":"","intensifies_path":"","is_ai_generate_content":false,"is_copyright":false,"is_text_edit_overdub":false,"is_unified_beauty_mode":false,"live_photo_cover_path":"","live_photo_timestamp":-1,"local_id":"","local_material_from":"","local_material_id":"ef612ece-aa19-41cb-a7ee-3f5c8397f7b9","material_id":"","material_name":"1.3_20250205_1417_Journey to the Summit_simple_compose_01jkbrqd7hefts47ckzw1zxgp9.mp4","material_url":"","matting":{"custom_matting_id":"","enable_matting_stroke":false,"expansion":0,"feather":0,"flag":0,"has_use_quick_brush":false,"has_use_quick_eraser":false,"interactiveTime":[],"path":"","reverse":false,"strokes":[]},"media_path":"","multi_camera_info":null,"object_locked":null,"origin_material_id":"","path":"C:/Users/Computer/Downloads/1.3_20250205_1417_Journey to the Summit_simple_compose_01jkbrqd7hefts47ckzw1zxgp9.mp4","picture_from":"none","picture_set_category_id":"","picture_set_category_name":"","request_id":"","reverse_intensifies_path":"","reverse_path":"","smart_match_info":null,"smart_motion":null,"source":0,"source_platform":0,"stable":{"matrix_path":"","stable_level":0,"time_range":{"duration":0,"start":0}},"team_id":"","type":"video","video_algorithm":{"ai_background_configs":[],"ai_expression_driven":null,"ai_motion_driven":null,"aigc_generate":null,"algorithms":[],"complement_frame_config":null,"deflicker":null,"gameplay_configs":[],"motion_blur_config":null,"mouth_shape_driver":null,"noise_reduction":null,"path":"","quality_enhance":null,"smart_complement_frame":null,"super_resolution":null,"time_range":{"duration":9033332,"start":966668}},"width":480},{"aigc_history_id":"","aigc_item_id":"","aigc_type":"none","audio_fade":null,"beauty_body_preset_id":"","beauty_face_auto_preset":{"name":"","preset_id":"","rate_map":""},"beauty_face_auto_preset_infos":[],"beauty_face_preset_infos":[],"cartoon_path":"","category_id":"","category_name":"local","check_flag":62978047,"crop":{"lower_left_x":0.0,"lower_left_y":1.0,"lower_right_x":1.0,"lower_right_y":1.0,"upper_left_x":0.0,"upper_left_y":0.0,"upper_right_x":1.0,"upper_right_y":0.0},"crop_ratio":"free","crop_scale":1.0,"duration":10000000,"extra_type_option":0,"formula_id":"","freeze":null,"has_audio":false,"has_sound_separated":false,"height":480,"id":"E05F15F0-FF19-4d8c-AFF3-24FB9D8D61D1","intensifies_audio_path":"","intensifies_path":"","is_ai_generate_content":false,"is_copyright":false,"is_text_edit_overdub":false,"is_unified_beauty_mode":false,"live_photo_cover_path":"","live_photo_timestamp":-1,"local_id":"","local_material_from":"","local_material_id":"d8e08a65-1d3d-427e-906e-b634d0d848ee","material_id":"","material_name":"1.5_20250212_1226_Mountaineer in Snowy Pass_storyboard_01jkxk4vw1e6tsrf68bf0apej8.mp4","material_url":"","matting":{"custom_matting_id":"","enable_matting_stroke":false,"expansion":0,"feather":0,"flag":0,"has_use_quick_brush":false,"has_use_quick_eraser":false,"interactiveTime":[],"path":"","reverse":false,"strokes":[]},"media_path":"","multi_camera_info":null,"object_locked":null,"origin_material_id":"","path":"C:/Users/Computer/Downloads/1.5_20250212_1226_Mountaineer in Snowy Pass_storyboard_01jkxk4vw1e6tsrf68bf0apej8.mp4","picture_from":"none","picture_set_category_id":"","picture_set_category_name":"","request_id":"","reverse_intensifies_path":"","reverse_path":"","smart_match_info":null,"smart_motion":null,"source":0,"source_platform":0,"stable":{"matrix_path":"","stable_level":0,"time_range":{"duration":0,"start":0}},"team_id":"","type":"video","video_algorithm":{"ai_background_configs":[],"ai_expression_driven":null,"ai_motion_driven":null,"aigc_generate":null,"algorithms":[],"complement_frame_config":null,"deflicker":null,"gameplay_configs":[],"motion_blur_config":null,"mouth_shape_driver":null,"noise_reduction":null,"path":"","quality_enhance":null,"smart_complement_frame":null,"super_resolution":null,"time_range":{"duration":10000000,"start":0}},"width":480},{"aigc_history_id":"","aigc_item_id":"","aigc_type":"none","audio_fade":null,"beauty_body_preset_id":"","beauty_face_auto_preset":{"name":"","preset_id":"","rate_map":""},"beauty_face_auto_preset_infos":[],"beauty_face_preset_infos":[],"cartoon_path":"","category_id":"","category_name":"local","check_flag":62978047,"crop":{"lower_left_x":0.0,"lower_left_y":1.0,"lower_right_x":1.0,"lower_right_y":1.0,"upper_left_x":0.0,"upper_left_y":0.0,"upper_right_x":1.0,"upper_right_y":0.0},"crop_ratio":"free","crop_scale":1.0,"duration":10000000,"extra_type_option":0,"formula_id":"","freeze":null,"has_audio":false,"has_sound_separated":false,"height":480,"id":"130288E4-CA49-477a-B683-47F311915A2C","intensifies_audio_path":"","intensifies_path":"","is_ai_generate_content":false,"is_copyright":false,"is_text_edit_overdub":false,"is_unified_beauty_mode":false,"live_photo_cover_path":"","live_photo_timestamp":-1,"local_id":"","local_material_from":"","local_material_id":"d0f78caf-a2c1-40c8-aa70-69dac0fa3f86","material_id":"","material_name":"1.4_20250212_1228_Extreme Mountain Climbing_storyboard_01jkxk8kdnf30a347hsxmz6scs.mp4","material_url":"","matting":{"custom_matting_id":"","enable_matting_stroke":false,"expansion":0,"feather":0,"flag":0,"has_use_quick_brush":false,"has_use_quick_eraser":false,"interactiveTime":[],"path":"","reverse":false,"strokes":[]},"media_path":"","multi_camera_info":null,"object_locked":null,"origin_material_id":"","path":"C:/Users/Computer/Downloads/1.4_20250212_1228_Extreme Mountain Climbing_storyboard_01jkxk8kdnf30a347hsxmz6scs.mp4","picture_from":"none","picture_set_category_id":"","picture_set_category_name":"","request_id":"","reverse_intensifies_path":"","reverse_path":"","smart_match_info":null,"smart_motion":null,"source":0,"source_platform":0,"stable":{"matrix_path":"","stable_level":0,"time_range":{"duration":0,"start":0}},"team_id":"","type":"video","video_algorithm":{"ai_background_configs":[],"ai_expression_driven":null,"ai_motion_driven":null,"aigc_generate":null,"algorithms":[],"complement_frame_config":null,"deflicker":null,"gameplay_configs":[],"motion_blur_config":null,"mouth_shape_driver":null,"noise_reduction":null,"path":"","quality_enhance":null,"smart_complement_frame":null,"super_resolution":null,"time_range":{"duration":10000000,"start":0}},"width":480},{"aigc_history_id":"","aigc_item_id":"","aigc_type":"none","audio_fade":null,"beauty_body_preset_id":"","beauty_face_auto_preset":{"name":"","preset_id":"","rate_map":""},"beauty_face_auto_preset_infos":[],"beauty_face_preset_infos":[],"cartoon_path":"","category_id":"","category_name":"local","check_flag":62978047,"crop":{"lower_left_x":0.0,"lower_left_y":1.0,"lower_right_x":1.0,"lower_right_y":1.0,"upper_left_x":0.0,"upper_left_y":0.0,"upper_right_x":1.0,"upper_right_y":0.0},"crop_ratio":"free","crop_scale":1.0,"duration":10000000,"extra_type_option":0,"formula_id":"","freeze":null,"has_audio":false,"has_sound_separated":false,"height":480,"id":"8BCF04C0-FF6E-4229-AC7E-F1896993EB29","intensifies_audio_path":"","intensifies_path":"","is_ai_generate_content":false,"is_copyright":false,"is_text_edit_overdub":false,"is_unified_beauty_mode":false,"live_photo_cover_path":"","live_photo_timestamp":-1,"local_id":"","local_material_from":"","local_material_id":"6dcb51e2-0fac-4136-a689-0d074ff5f34a","material_id":"","material_name":"1.6_20250205_1436_Perilous Everest Ascent_simple_compose_01jkbstq29f14bwe4ykw6ebk1e.mp4","material_url":"","matting":{"custom_matting_id":"","enable_matting_stroke":false,"expansion":0,"feather":0,"flag":0,"has_use_quick_brush":false,"has_use_quick_eraser":false,"interactiveTime":[],"path":"","reverse":false,"strokes":[]},"media_path":"","multi_camera_info":null,"object_locked":null,"origin_material_id":"","path":"C:/Users/Computer/Downloads/1.6_20250205_1436_Perilous Everest Ascent_simple_compose_01jkbstq29f14bwe4ykw6ebk1e.mp4","picture_from":"none","picture_set_category_id":"","picture_set_category_name":"","request_id":"","reverse_intensifies_path":"","reverse_path":"","smart_match_info":null,"smart_motion":null,"source":0,"source_platform":0,"stable":{"matrix_path":"","stable_level":0,"time_range":{"duration":0,"start":0}},"team_id":"","type":"video","video_algorithm":{"ai_background_configs":[],"ai_expression_driven":null,"ai_motion_driven":null,"aigc_generate":null,"algorithms":[],"complement_frame_config":null,"deflicker":null,"gameplay_configs":[],"motion_blur_config":null,"mouth_shape_driver":null,"noise_reduction":null,"path":"","quality_enhance":null,"smart_complement_frame":null,"super_resolution":null,"time_range":null},"width":480},{"aigc_history_id":"","aigc_item_id":"","aigc_type":"none","audio_fade":null,"beauty_body_preset_id":"","beauty_face_auto_preset":{"name":"","preset_id":"","rate_map":""},"beauty_face_auto_preset_infos":[],"beauty_face_preset_infos":[],"cartoon_path":"","category_id":"","category_name":"","check_flag":62978047,"crop":{"lower_left_x":0.0,"lower_left_y":1.0,"lower_right_x":1.0,"lower_right_y":1.0,"upper_left_x":0.0,"upper_left_y":0.0,"upper_right_x":1.0,"upper_right_y":0.0},"crop_ratio":"free","crop_scale":1.0,"duration":10000000,"extra_type_option":0,"formula_id":"","freeze":null,"has_audio":false,"has_sound_separated":false,"height":480,"id":"528464E2-255A-45e7-81F6-13BAC8F317CD","intensifies_audio_path":"","intensifies_path":"","is_ai_generate_content":false,"is_copyright":false,"is_text_edit_overdub":false,"is_unified_beauty_mode":false,"live_photo_cover_path":"","live_photo_timestamp":-1,"local_id":"","local_material_from":"","local_material_id":"","material_id":"","material_name":"1.7_20250212_1246_Extreme Ice Climbing_storyboard_01jkxma0czf34angwavvwz2p3z.mp4","material_url":"","matting":{"custom_matting_id":"","enable_matting_stroke":false,"expansion":0,"feather":0,"flag":0,"has_use_quick_brush":false,"has_use_quick_eraser":false,"interactiveTime":[],"path":"","reverse":false,"strokes":[]},"media_path":"","multi_camera_info":null,"object_locked":null,"origin_material_id":"","path":"C:/Users/Computer/Downloads/1.7_20250212_1246_Extreme Ice Climbing_storyboard_01jkxma0czf34angwavvwz2p3z.mp4","picture_from":"none","picture_set_category_id":"","picture_set_category_name":"","request_id":"","reverse_intensifies_path":"","reverse_path":"","smart_match_info":null,"smart_motion":null,"source":0,"source_platform":0,"stable":{"matrix_path":"","stable_level":0,"time_range":{"duration":0,"start":0}},"team_id":"","type":"video","video_algorithm":{"ai_background_configs":[],"ai_expression_driven":null,"ai_motion_driven":null,"aigc_generate":null,"algorithms":[],"complement_frame_config":null,"deflicker":null,"gameplay_configs":[],"motion_blur_config":null,"mouth_shape_driver":null,"noise_reduction":null,"path":"","quality_enhance":null,"smart_complement_frame":null,"super_resolution":null,"time_range":{"duration":10000000,"start":0}},"width":480},{"aigc_history_id":"","aigc_item_id":"","aigc_type":"none","audio_fade":null,"beauty_body_preset_id":"","beauty_face_auto_preset":{"name":"","preset_id":"","rate_map":""},"beauty_face_auto_preset_infos":[],"beauty_face_preset_infos":[],"cartoon_path":"","category_id":"","category_name":"local","check_flag":62978047,"crop":{"lower_left_x":0.0,"lower_left_y":1.0,"lower_right_x":1.0,"lower_right_y":1.0,"upper_left_x":0.0,"upper_left_y":0.0,"upper_right_x":1.0,"upper_right_y":0.0},"crop_ratio":"free","crop_scale":1.0,"duration":10000000,"extra_type_option":0,"formula_id":"","freeze":null,"has_audio":false,"has_sound_separated":false,"height":480,"id":"8D30DFDA-1FA5-4f0d-AC66-797CC306973D","intensifies_audio_path":"","intensifies_path":"","is_ai_generate_content":false,"is_copyright":false,"is_text_edit_overdub":false,"is_unified_beauty_mode":false,"live_photo_cover_path":"","live_photo_timestamp":-1,"local_id":"","local_material_from":"","local_material_id":"b64d523c-2230-409c-ac37-0ee1de5163c7","material_id":"","material_name":"1.8_20250212_1258_Avalanche Incoming Adventure_storyboard_01jkxmzsxne5qrz7tgr04jtqys.mp4","material_url":"","matting":{"custom_matting_id":"","enable_matting_stroke":false,"expansion":0,"feather":0,"flag":0,"has_use_quick_brush":false,"has_use_quick_eraser":false,"interactiveTime":[],"path":"","reverse":false,"strokes":[]},"media_path":"","multi_camera_info":null,"object_locked":null,"origin_material_id":"","path":"C:/Users/Computer/Downloads/1.8_20250212_1258_Avalanche Incoming Adventure_storyboard_01jkxmzsxne5qrz7tgr04jtqys.mp4","picture_from":"none","picture_set_category_id":"","picture_set_category_name":"","request_id":"","reverse_intensifies_path":"","reverse_path":"","smart_match_info":null,"smart_motion":null,"source":0,"source_platform":0,"stable":{"matrix_path":"","stable_level":0,"time_range":{"duration":0,"start":0}},"team_id":"","type":"video","video_algorithm":{"ai_background_configs":[],"ai_expression_driven":null,"ai_motion_driven":null,"aigc_generate":null,"algorithms":[],"complement_frame_config":null,"deflicker":null,"gameplay_configs":[],"motion_blur_config":null,"mouth_shape_driver":null,"noise_reduction":null,"path":"","quality_enhance":null,"smart_complement_frame":null,"super_resolution":null,"time_range":{"duration":10000000,"start":0}},"width":480},{"aigc_history_id":"","aigc_item_id":"","aigc_type":"none","audio_fade":null,"beauty_body_preset_id":"","beauty_face_auto_preset":{"name":"","preset_id":"","rate_map":""},"beauty_face_auto_preset_infos":[],"beauty_face_preset_infos":[],"cartoon_path":"","category_id":"","category_name":"local","check_flag":62978047,"crop":{"lower_left_x":0.0,"lower_left_y":1.0,"lower_right_x":1.0,"lower_right_y":1.0,"upper_left_x":0.0,"upper_left_y":0.0,"upper_right_x":1.0,"upper_right_y":0.0},"crop_ratio":"free","crop_scale":1.0,"duration":10000000,"extra_type_option":0,"formula_id":"","freeze":null,"has_audio":false,"has_sound_separated":false,"height":480,"id":"E832B755-360E-4b99-A145-94B6E5785C43","intensifies_audio_path":"","intensifies_path":"","is_ai_generate_content":false,"is_copyright":false,"is_text_edit_overdub":false,"is_unified_beauty_mode":false,"live_photo_cover_path":"","live_photo_timestamp":-1,"local_id":"","local_material_from":"","local_material_id":"ad4d2601-6037-4fb1-841f-8a17f33e3d2c","material_id":"","material_name":"1.9_20250212_1306_Smooth Camera Transition_storyboard_01jkxnes3zetxr4r3rxhq70pmf.mp4","material_url":"","matting":{"custom_matting_id":"","enable_matting_stroke":false,"expansion":0,"feather":0,"flag":0,"has_use_quick_brush":false,"has_use_quick_eraser":false,"interactiveTime":[],"path":"","reverse":false,"strokes":[]},"media_path":"","multi_camera_info":null,"object_locked":null,"origin_material_id":"","path":"C:/Users/Computer/Downloads/1.9_20250212_1306_Smooth Camera Transition_storyboard_01jkxnes3zetxr4r3rxhq70pmf.mp4","picture_from":"none","picture_set_category_id":"","picture_set_category_name":"","request_id":"","reverse_intensifies_path":"","reverse_path":"","smart_match_info":null,"smart_motion":null,"source":0,"source_platform":0,"stable":{"matrix_path":"","stable_level":0,"time_range":{"duration":0,"start":0}},"team_id":"","type":"video","video_algorithm":{"ai_background_configs":[],"ai_expression_driven":null,"ai_motion_driven":null,"aigc_generate":null,"algorithms":[],"complement_frame_config":null,"deflicker":null,"gameplay_configs":[],"motion_blur_config":null,"mouth_shape_driver":null,"noise_reduction":null,"path":"","quality_enhance":null,"smart_complement_frame":null,"super_resolution":null,"time_range":{"duration":10000000,"start":0}},"width":480},{"aigc_history_id":"","aigc_item_id":"","aigc_type":"none","audio_fade":null,"beauty_body_preset_id":"","beauty_face_auto_preset":{"name":"","preset_id":"","rate_map":""},"beauty_face_auto_preset_infos":[],"beauty_face_preset_infos":[],"cartoon_path":"","category_id":"","category_name":"local","check_flag":62978047,"crop":{"lower_left_x":0.0,"lower_left_y":1.0,"lower_right_x":1.0,"lower_right_y":1.0,"upper_left_x":0.0,"upper_left_y":0.0,"upper_right_x":1.0,"upper_right_y":0.0},"crop_ratio":"free","crop_scale":1.0,"duration":10000000,"extra_type_option":0,"formula_id":"","freeze":null,"has_audio":false,"has_sound_separated":false,"height":480,"id":"2E219A93-F535-4ab8-BFBB-B598571D62C2","intensifies_audio_path":"","intensifies_path":"","is_ai_generate_content":false,"is_copyright":false,"is_text_edit_overdub":false,"is_unified_beauty_mode":false,"live_photo_cover_path":"","live_photo_timestamp":-1,"local_id":"","local_material_from":"","local_material_id":"81df4021-abe9-4a8d-9ecf-cdbaaa6afa8d","material_id":"","material_name":"1.91_20250212_1308_Starlit Winter Camping_storyboard_01jkxnhpggfbas1retbfbbmbzn.mp4","material_url":"","matting":{"custom_matting_id":"","enable_matting_stroke":false,"expansion":0,"feather":0,"flag":0,"has_use_quick_brush":false,"has_use_quick_eraser":false,"interactiveTime":[],"path":"","reverse":false,"strokes":[]},"media_path":"","multi_camera_info":null,"object_locked":null,"origin_material_id":"","path":"C:/Users/Computer/Downloads/1.91_20250212_1308_Starlit Winter Camping_storyboard_01jkxnhpggfbas1retbfbbmbzn.mp4","picture_from":"none","picture_set_category_id":"","picture_set_category_name":"","request_id":"","reverse_intensifies_path":"","reverse_path":"","smart_match_info":null,"smart_motion":null,"source":0,"source_platform":0,"stable":{"matrix_path":"","stable_level":0,"time_range":{"duration":0,"start":0}},"team_id":"","type":"video","video_algorithm":{"ai_background_configs":[],"ai_expression_driven":null,"ai_motion_driven":null,"aigc_generate":null,"algorithms":[],"complement_frame_config":null,"deflicker":null,"gameplay_configs":[],"motion_blur_config":null,"mouth_shape_driver":null,"noise_reduction":null,"path":"","quality_enhance":null,"smart_complement_frame":null,"super_resolution":null,"time_range":{"duration":10000000,"start":0}},"width":480},{"aigc_history_id":"","aigc_item_id":"","aigc_type":"none","audio_fade":null,"beauty_body_preset_id":"","beauty_face_auto_preset":{"name":"","preset_id":"","rate_map":""},"beauty_face_auto_preset_infos":[],"beauty_face_preset_infos":[],"cartoon_path":"","category_id":"","category_name":"","check_flag":62978047,"crop":{"lower_left_x":0.0,"lower_left_y":1.0,"lower_right_x":1.0,"lower_right_y":1.0,"upper_left_x":0.0,"upper_left_y":0.0,"upper_right_x":1.0,"upper_right_y":0.0},"crop_ratio":"free","crop_scale":1.0,"duration":3000000,"extra_type_option":0,"formula_id":"","freeze":null,"has_audio":true,"has_sound_separated":false,"height":540,"id":"3E8CA176-3EE4-47dc-8441-38F452E12D45","intensifies_audio_path":"","intensifies_path":"","is_ai_generate_content":false,"is_copyright":false,"is_text_edit_overdub":false,"is_unified_beauty_mode":false,"live_photo_cover_path":"","live_photo_timestamp":-1,"local_id":"","local_material_from":"","local_material_id":"","material_id":"","material_name":"black.mp4","material_url":"","matting":{"custom_matting_id":"","enable_matting_stroke":false,"expansion":0,"feather":0,"flag":0,"has_use_quick_brush":false,"has_use_quick_eraser":false,"interactiveTime":[],"path":"","reverse":false,"strokes":[]},"media_path":"","multi_camera_info":null,"object_locked":null,"origin_material_id":"","path":"C:/Users/Computer/Videos/black.mp4","picture_from":"none","picture_set_category_id":"","picture_set_category_name":"","request_id":"","reverse_intensifies_path":"","reverse_path":"","smart_match_info":null,"smart_motion":null,"source":0,"source_platform":0,"stable":{"matrix_path":"","stable_level":0,"time_range":{"duration":0,"start":0}},"team_id":"","type":"video","video_algorithm":{"ai_background_configs":[],"ai_expression_driven":null,"ai_motion_driven":null,"aigc_generate":null,"algorithms":[],"complement_frame_config":null,"deflicker":null,"gameplay_configs":[],"motion_blur_config":null,"mouth_shape_driver":null,"noise_reduction":null,"path":"","quality_enhance":null,"smart_complement_frame":null,"super_resolution":null,"time_range":null},"width":960}],"vocal_beautifys":[],"vocal_separations":[{"choice":0,"id":"B3DB39D0-3DB5-41d7-911D-F3C66EDD3F2C","production_path":"","removed_sounds":[],"time_range":null,"type":"vocal_separation"},{"choice":0,"id":"0D4DDE6F-CDD2-4907-A520-E4577FC92D40","production_path":"","removed_sounds":[],"time_range":null,"type":"vocal_separation"},{"choice":0,"id":"7D48884A-3BE3-49e3-AE00-21BBC0BE6301","production_path":"","removed_sounds":[],"time_range":null,"type":"vocal_separation"},{"choice":0,"id":"CE042AC2-A965-4563-B62C-7F2BE0496C36","production_path":"","removed_sounds":[],"time_range":null,"type":"vocal_separation"},{"choice":0,"id":"A79E0386-7B86-4d09-B177-CAED293F0C62","production_path":"","removed_sounds":[],"time_range":null,"type":"vocal_separation"},{"choice":0,"id":"3320A7AA-779D-4579-9697-BC45BEF0A673","production_path":"","removed_sounds":[],"time_range":null,"type":"vocal_separation"},{"choice":0,"id":"7B16695E-4D97-4c66-9CB7-8C4C6C03DAAB","production_path":"","removed_sounds":[],"time_range":null,"type":"vocal_separation"},{"choice":0,"id":"2649A8C9-CB23-4b34-9525-3496D9E997E3","production_path":"","removed_sounds":[],"time_range":null,"type":"vocal_separation"},{"choice":0,"id":"8F609626-3886-4bdd-826B-1FDA93351E72","production_path":"","removed_sounds":[],"time_range":null,"type":"vocal_separation"},{"choice":0,"id":"D5C63439-6159-4672-9D82-D47012A1A6D3","production_path":"","removed_sounds":[],"time_range":null,"type":"vocal_separation"},{"choice":0,"id":"880B32D9-D97D-48c3-B36C-F6BDE09C7BE7","production_path":"","removed_sounds":[],"time_range":null,"type":"vocal_separation"},{"choice":0,"id":"D2A5B8C0-032E-424e-9DDA-F9D382C8B00A","production_path":"","removed_sounds":[],"time_range":null,"type":"vocal_separation"},{"choice":0,"id":"08F0FDB5-185F-482d-814E-AD6D44EF886B","production_path":"","removed_sounds":[],"time_range":null,"type":"vocal_separation"}]},"mutable_config":null,"name":"","new_version":"132.0.0","path":"","platform":{"app_id":359289,"app_source":"cc","app_version":"5.6.0","device_id":"b000ef05ad8a2c8de98905bbc4a2a13d","hard_disk_id":"98697f5b2672733057711c84e4b517c3","mac_address":"09861091e4eef2367b35d8703476edfc,3ab780bc59d11a00e1ba676c31de1115","os":"windows","os_version":"10.0.26100"},"relationships":[],"render_index_track_mode_on":true,"retouch_cover":null,"source":"default","static_cover_image_path":"","time_marks":null,"tracks":[{"attribute":0,"flag":0,"id":"7DE0EB0E-5551-46ff-8735-EABD8ECA7676","is_default_name":true,"name":"","segments":[{"caption_info":null,"cartoon":false,"clip":{"alpha":1.0,"flip":{"horizontal":false,"vertical":false},"rotation":0.0,"scale":{"x":1.0,"y":1.0},"transform":{"x":0.0,"y":0.0}},"color_correct_alg_result":"","common_keyframes":[],"desc":"","digital_human_template_group_id":"","enable_adjust":true,"enable_adjust_mask":false,"enable_color_correct_adjust":false,"enable_color_curves":true,"enable_color_match_adjust":false,"enable_color_wheels":true,"enable_hsl":false,"enable_lut":true,"enable_smart_color_adjust":false,"enable_video_mask":true,"extra_material_refs":["E3354231-B172-42ed-9EAD-92E665F00508","1148DDE4-B9D9-4a7d-A5CB-7121D616BD21","8DEC9576-41B5-43b8-88AC-13B351750954","87DA1CC9-FA32-491a-873F-518DAF657820","B3DB39D0-3DB5-41d7-911D-F3C66EDD3F2C"],"group_id":"","hdr_settings":{"intensity":1.0,"mode":1,"nits":1000},"id":"30C9D4CD-D932-4f68-88A4-9BFA4FBE4013","intensifies_audio":false,"is_loop":false,"is_placeholder":false,"is_tone_modify":false,"keyframe_refs":[],"last_nonzero_volume":1.0,"lyric_keyframes":null,"material_id":"952AE39B-0478-48bf-9523-70E9CA6D04D0","raw_segment_id":"","render_index":0,"render_timerange":{"duration":0,"start":0},"responsive_layout":{"enable":false,"horizontal_pos_layout":0,"size_layout":0,"target_follow":"","vertical_pos_layout":0},"reverse":false,"source_timerange":{"duration":10000000,"start":0},"speed":1.0,"state":0,"target_timerange":{"duration":10000000,"start":0},"template_id":"","template_scene":"default","track_attribute":0,"track_render_index":0,"uniform_scale":{"on":true,"value":1.0},"visible":true,"volume":1.0},{"caption_info":null,"cartoon":false,"clip":{"alpha":1.0,"flip":{"horizontal":false,"vertical":false},"rotation":0.0,"scale":{"x":1.0,"y":1.0},"transform":{"x":0.0,"y":0.0}},"color_correct_alg_result":"","common_keyframes":[],"desc":"","digital_human_template_group_id":"","enable_adjust":true,"enable_adjust_mask":false,"enable_color_correct_adjust":false,"enable_color_curves":true,"enable_color_match_adjust":false,"enable_color_wheels":true,"enable_hsl":false,"enable_lut":true,"enable_smart_color_adjust":false,"enable_video_mask":true,"extra_material_refs":["7195BFE1-0070-44e5-866F-A9A2B2A155A7","8EF86515-59FD-4160-90C7-81CA1693F7B0","0EE9D6BE-B56E-4c01-BE09-AD37C068D6BF","EA18BF81-C556-4b74-84E8-9C15F979330F","3D252679-E663-43d2-B77D-E50071782147","0D4DDE6F-CDD2-4907-A520-E4577FC92D40"],"group_id":"","hdr_settings":{"intensity":1.0,"mode":1,"nits":1000},"id":"05CC6BED-B16C-48d8-A027-66001D6CC9FD","intensifies_audio":false,"is_loop":false,"is_placeholder":false,"is_tone_modify":false,"keyframe_refs":[],"last_nonzero_volume":1.0,"lyric_keyframes":null,"material_id":"D34AE0FD-C3FF-4414-B8A1-BA8DEBFDBDF8","raw_segment_id":"","render_index":0,"render_timerange":{"duration":0,"start":0},"responsive_layout":{"enable":false,"horizontal_pos_layout":0,"size_layout":0,"target_follow":"","vertical_pos_layout":0},"reverse":false,"source_timerange":{"duration":7933333,"start":533333},"speed":1.0,"state":0,"target_timerange":{"duration":7933333,"start":10000000},"template_id":"","template_scene":"default","track_attribute":0,"track_render_index":0,"uniform_scale":{"on":true,"value":1.0},"visible":true,"volume":1.0},{"caption_info":null,"cartoon":false,"clip":{"alpha":1.0,"flip":{"horizontal":false,"vertical":false},"rotation":0.0,"scale":{"x":1.0,"y":1.0},"transform":{"x":0.0,"y":0.0}},"color_correct_alg_result":"","common_keyframes":[],"desc":"","digital_human_template_group_id":"","enable_adjust":true,"enable_adjust_mask":false,"enable_color_correct_adjust":false,"enable_color_curves":true,"enable_color_match_adjust":false,"enable_color_wheels":true,"enable_hsl":false,"enable_lut":true,"enable_smart_color_adjust":false,"enable_video_mask":true,"extra_material_refs":["1CA72DAB-B6EA-4b19-B5D9-6273D48F8290","F812A189-4227-4a16-B153-31979A29E289","2E8C2773-4B23-43dd-8413-4B93E3E442B6","DB1FEE1F-BA22-444f-A445-3EB8D2FA08EA","A84475E2-E5AD-40da-8E20-114F79033CDD","7D48884A-3BE3-49e3-AE00-21BBC0BE6301"],"group_id":"","hdr_settings":{"intensity":1.0,"mode":1,"nits":1000},"id":"EC6B0484-2AD6-4f16-965C-9D1017BF28ED","intensifies_audio":false,"is_loop":false,"is_placeholder":false,"is_tone_modify":false,"keyframe_refs":[],"last_nonzero_volume":1.0,"lyric_keyframes":null,"material_id":"736B708F-3387-4432-855C-9AB1A341974F","raw_segment_id":"","render_index":0,"render_timerange":{"duration":0,"start":0},"responsive_layout":{"enable":false,"horizontal_pos_layout":0,"size_layout":0,"target_follow":"","vertical_pos_layout":0},"reverse":false,"source_timerange":{"duration":7833333,"start":1900000},"speed":1.0,"state":0,"target_timerange":{"duration":7833333,"start":17933333},"template_id":"","template_scene":"default","track_attribute":0,"track_render_index":0,"uniform_scale":{"on":true,"value":1.0},"visible":true,"volume":1.0},{"caption_info":null,"cartoon":false,"clip":{"alpha":1.0,"flip":{"horizontal":false,"vertical":false},"rotation":0.0,"scale":{"x":1.0,"y":1.0},"transform":{"x":0.0,"y":0.0}},"color_correct_alg_result":"","common_keyframes":[],"desc":"","digital_human_template_group_id":"","enable_adjust":true,"enable_adjust_mask":false,"enable_color_correct_adjust":false,"enable_color_curves":true,"enable_color_match_adjust":false,"enable_color_wheels":true,"enable_hsl":false,"enable_lut":true,"enable_smart_color_adjust":false,"enable_video_mask":true,"extra_material_refs":["FA177366-8B53-4c33-B41C-71224281C958","FD120C25-EF98-484b-8C87-037BD70E1512","BC24AD01-3E6B-4259-B41A-D7D1EAE2A4DC","44F96E26-64D8-4f72-8060-D2242DEE3060","841931FE-34C5-4792-9945-B34170075C73","CE042AC2-A965-4563-B62C-7F2BE0496C36"],"group_id":"","hdr_settings":{"intensity":1.0,"mode":1,"nits":1000},"id":"D4C15D7F-8F2E-4635-8CBC-6A036F694345","intensifies_audio":false,"is_loop":false,"is_placeholder":false,"is_tone_modify":false,"keyframe_refs":[],"last_nonzero_volume":1.0,"lyric_keyframes":null,"material_id":"B727E5E9-5775-4f34-B86E-F6A776A424DA","raw_segment_id":"","render_index":0,"render_timerange":{"duration":0,"start":0},"responsive_layout":{"enable":false,"horizontal_pos_layout":0,"size_layout":0,"target_follow":"","vertical_pos_layout":0},"reverse":false,"source_timerange":{"duration":6033334,"start":3966666},"speed":1.0,"state":0,"target_timerange":{"duration":6033334,"start":25766666},"template_id":"","template_scene":"default","track_attribute":0,"track_render_index":0,"uniform_scale":{"on":true,"value":1.0},"visible":true,"volume":1.0},{"caption_info":null,"cartoon":false,"clip":{"alpha":1.0,"flip":{"horizontal":false,"vertical":false},"rotation":0.0,"scale":{"x":1.0,"y":1.0},"transform":{"x":0.0,"y":0.0}},"color_correct_alg_result":"","common_keyframes":[],"desc":"","digital_human_template_group_id":"","enable_adjust":true,"enable_adjust_mask":false,"enable_color_correct_adjust":false,"enable_color_curves":true,"enable_color_match_adjust":false,"enable_color_wheels":true,"enable_hsl":false,"enable_lut":true,"enable_smart_color_adjust":false,"enable_video_mask":true,"extra_material_refs":["FB595FB9-19EF-4cbe-8768-5FD6CA8D389C","F347575F-BC0B-417a-ADB4-BA9E04A8EF14","2F0EDC55-16D3-4f55-A790-0F7DCEE563EE","5AD42145-FC26-43eb-9A6B-D896402EA2DE","7A34A022-3261-482e-9903-6E75FBBD6942","A79E0386-7B86-4d09-B177-CAED293F0C62"],"group_id":"","hdr_settings":{"intensity":1.0,"mode":1,"nits":1000},"id":"BF787D76-121C-415c-A553-2C6280A1CC4D","intensifies_audio":false,"is_loop":false,"is_placeholder":false,"is_tone_modify":false,"keyframe_refs":[],"last_nonzero_volume":1.0,"lyric_keyframes":null,"material_id":"E05F15F0-FF19-4d8c-AFF3-24FB9D8D61D1","raw_segment_id":"","render_index":0,"render_timerange":{"duration":0,"start":0},"responsive_layout":{"enable":false,"horizontal_pos_layout":0,"size_layout":0,"target_follow":"","vertical_pos_layout":0},"reverse":false,"source_timerange":{"duration":9500000,"start":500000},"speed":1.0,"state":0,"target_timerange":{"duration":9500000,"start":31800000},"template_id":"","template_scene":"default","track_attribute":0,"track_render_index":0,"uniform_scale":{"on":true,"value":1.0},"visible":true,"volume":1.0},{"caption_info":null,"cartoon":false,"clip":{"alpha":1.0,"flip":{"horizontal":false,"vertical":false},"rotation":0.0,"scale":{"x":1.0,"y":1.0},"transform":{"x":0.0,"y":0.0}},"color_correct_alg_result":"","common_keyframes":[],"desc":"","digital_human_template_group_id":"","enable_adjust":true,"enable_adjust_mask":false,"enable_color_correct_adjust":false,"enable_color_curves":true,"enable_color_match_adjust":false,"enable_color_wheels":true,"enable_hsl":false,"enable_lut":true,"enable_smart_color_adjust":false,"enable_video_mask":true,"extra_material_refs":["D0151180-2629-4ede-AA87-4D7D1C31DB94","B5219FD9-1DD7-43ca-A61C-D1F589B91DC5","81B5D1A3-7A3A-4cd4-B405-7973A805B5F6","B3BE8C03-D586-4035-B883-703D52424232","8E3CDA0E-7902-4ec7-9FFE-1FA616DD9BA1","8E6A1AA4-25C3-416b-AA68-5F63D3EF07CF","3320A7AA-779D-4579-9697-BC45BEF0A673"],"group_id":"","hdr_settings":{"intensity":1.0,"mode":1,"nits":1000},"id":"021D44BF-672A-455a-9DE9-A079FD0F8CD5","intensifies_audio":false,"is_loop":false,"is_placeholder":false,"is_tone_modify":false,"keyframe_refs":[],"last_nonzero_volume":1.0,"lyric_keyframes":null,"material_id":"130288E4-CA49-477a-B683-47F311915A2C","raw_segment_id":"","render_index":0,"render_timerange":{"duration":0,"start":0},"responsive_layout":{"enable":false,"horizontal_pos_layout":0,"size_layout":0,"target_follow":"","vertical_pos_layout":0},"reverse":false,"source_timerange":{"duration":9500000,"start":500000},"speed":1.0,"state":0,"target_timerange":{"duration":9500000,"start":41300000},"template_id":"","template_scene":"default","track_attribute":0,"track_render_index":0,"uniform_scale":{"on":true,"value":1.0},"visible":true,"volume":1.0},{"caption_info":null,"cartoon":false,"clip":{"alpha":1.0,"flip":{"horizontal":false,"vertical":false},"rotation":0.0,"scale":{"x":1.0,"y":1.0},"transform":{"x":0.0,"y":0.0}},"color_correct_alg_result":"","common_keyframes":[],"desc":"","digital_human_template_group_id":"","enable_adjust":true,"enable_adjust_mask":false,"enable_color_correct_adjust":false,"enable_color_curves":true,"enable_color_match_adjust":false,"enable_color_wheels":true,"enable_hsl":false,"enable_lut":true,"enable_smart_color_adjust":false,"enable_video_mask":true,"extra_material_refs":["C2C4F284-88E0-46d1-BEB4-A86CC9F0D391","92EF2936-4513-4a7e-93C7-63F849D512E5","B6DD1B26-20A5-455e-AAC2-3D5DEA9ED418","2C880FDB-4C3F-4ed2-92B5-08CFBFFDF988","8D12B904-45FA-43cd-953B-183FD1E35D93","7B16695E-4D97-4c66-9CB7-8C4C6C03DAAB"],"group_id":"","hdr_settings":{"intensity":1.0,"mode":1,"nits":1000},"id":"8A8D33F7-4D11-40b7-8C8D-148906BBD05C","intensifies_audio":false,"is_loop":false,"is_placeholder":false,"is_tone_modify":false,"keyframe_refs":[],"last_nonzero_volume":1.0,"lyric_keyframes":null,"material_id":"8BCF04C0-FF6E-4229-AC7E-F1896993EB29","raw_segment_id":"","render_index":0,"render_timerange":{"duration":0,"start":0},"responsive_layout":{"enable":false,"horizontal_pos_layout":0,"size_layout":0,"target_follow":"","vertical_pos_layout":0},"reverse":false,"source_timerange":{"duration":10000000,"start":0},"speed":1.0,"state":0,"target_timerange":{"duration":10000000,"start":50800000},"template_id":"","template_scene":"default","track_attribute":0,"track_render_index":0,"uniform_scale":{"on":true,"value":1.0},"visible":true,"volume":1.0},{"caption_info":null,"cartoon":false,"clip":{"alpha":1.0,"flip":{"horizontal":false,"vertical":false},"rotation":0.0,"scale":{"x":1.0,"y":1.0},"transform":{"x":0.0,"y":0.0}},"color_correct_alg_result":"","common_keyframes":[],"desc":"","digital_human_template_group_id":"","enable_adjust":true,"enable_adjust_mask":false,"enable_color_correct_adjust":false,"enable_color_curves":true,"enable_color_match_adjust":false,"enable_color_wheels":true,"enable_hsl":false,"enable_lut":true,"enable_smart_color_adjust":false,"enable_video_mask":true,"extra_material_refs":["6DFD7E6B-239C-4d54-8F1B-7315CC89850E","B6E588A0-BB8C-469f-8A72-5CEEEA1CB4E4","7B540D88-B001-415c-9CA0-A96E94269CA8","3B0E5D58-26CD-418d-87C6-8F6697782221","0FACC945-1FE2-4568-8E8F-D8837748BC38","2649A8C9-CB23-4b34-9525-3496D9E997E3"],"group_id":"","hdr_settings":{"intensity":1.0,"mode":1,"nits":1000},"id":"B106F93D-FABD-4ff5-A476-986C4FF9F2D8","intensifies_audio":false,"is_loop":false,"is_placeholder":false,"is_tone_modify":false,"keyframe_refs":[],"last_nonzero_volume":1.0,"lyric_keyframes":null,"material_id":"528464E2-255A-45e7-81F6-13BAC8F317CD","raw_segment_id":"","render_index":0,"render_timerange":{"duration":0,"start":0},"responsive_layout":{"enable":false,"horizontal_pos_layout":0,"size_layout":0,"target_follow":"","vertical_pos_layout":0},"reverse":false,"source_timerange":{"duration":9466667,"start":533333},"speed":1.0,"state":0,"target_timerange":{"duration":9466666,"start":60800000},"template_id":"","template_scene":"default","track_attribute":0,"track_render_index":0,"uniform_scale":{"on":true,"value":1.0},"visible":true,"volume":1.0},{"caption_info":null,"cartoon":false,"clip":{"alpha":1.0,"flip":{"horizontal":false,"vertical":false},"rotation":0.0,"scale":{"x":1.0,"y":1.0},"transform":{"x":0.0,"y":0.0}},"color_correct_alg_result":"","common_keyframes":[],"desc":"","digital_human_template_group_id":"","enable_adjust":true,"enable_adjust_mask":false,"enable_color_correct_adjust":false,"enable_color_curves":true,"enable_color_match_adjust":false,"enable_color_wheels":true,"enable_hsl":false,"enable_lut":true,"enable_smart_color_adjust":false,"enable_video_mask":true,"extra_material_refs":["75A6CF80-F15D-4b60-A737-29CCB799541E","6D45502B-C940-4bbd-A949-E30AB752550B","D40563B3-A767-4a47-8B0C-FA3A8DBDC53D","2801E962-77B5-4d2f-A7FF-50E4DF5B1EED","AE0178A6-D446-44b9-A357-F4C522AF9911","8F609626-3886-4bdd-826B-1FDA93351E72"],"group_id":"","hdr_settings":{"intensity":1.0,"mode":1,"nits":1000},"id":"CB821465-0F29-41e4-8ED4-5F2E42BA79FB","intensifies_audio":false,"is_loop":false,"is_placeholder":false,"is_tone_modify":false,"keyframe_refs":[],"last_nonzero_volume":1.0,"lyric_keyframes":null,"material_id":"8D30DFDA-1FA5-4f0d-AC66-797CC306973D","raw_segment_id":"","render_index":0,"render_timerange":{"duration":0,"start":0},"responsive_layout":{"enable":false,"horizontal_pos_layout":0,"size_layout":0,"target_follow":"","vertical_pos_layout":0},"reverse":false,"source_timerange":{"duration":9466667,"start":533333},"speed":1.0,"state":0,"target_timerange":{"duration":9466667,"start":70266666},"template_id":"","template_scene":"default","track_attribute":0,"track_render_index":0,"uniform_scale":{"on":true,"value":1.0},"visible":true,"volume":1.0},{"caption_info":null,"cartoon":false,"clip":{"alpha":1.0,"flip":{"horizontal":false,"vertical":false},"rotation":0.0,"scale":{"x":1.0,"y":1.0},"transform":{"x":0.0,"y":0.0}},"color_correct_alg_result":"","common_keyframes":[],"desc":"","digital_human_template_group_id":"","enable_adjust":true,"enable_adjust_mask":false,"enable_color_correct_adjust":false,"enable_color_curves":true,"enable_color_match_adjust":false,"enable_color_wheels":true,"enable_hsl":false,"enable_lut":true,"enable_smart_color_adjust":false,"enable_video_mask":true,"extra_material_refs":["8270E83C-8BD5-4e23-A4DE-1C2A25F7B5CC","20D15B8E-39F1-4364-B1C0-08B71155DBF8","8D33083E-8A13-4662-A97F-6D715FF24A1B","D1AF0013-4C5A-4a19-B963-DF7302E6CA86","AFEC85A6-7751-48dd-9B89-33981E08771A","D5C63439-6159-4672-9D82-D47012A1A6D3"],"group_id":"","hdr_settings":{"intensity":1.0,"mode":1,"nits":1000},"id":"A6F40BEA-13D4-45fb-9B84-08A158B57B77","intensifies_audio":false,"is_loop":false,"is_placeholder":false,"is_tone_modify":false,"keyframe_refs":[],"last_nonzero_volume":1.0,"lyric_keyframes":null,"material_id":"E832B755-360E-4b99-A145-94B6E5785C43","raw_segment_id":"","render_index":0,"render_timerange":{"duration":0,"start":0},"responsive_layout":{"enable":false,"horizontal_pos_layout":0,"size_layout":0,"target_follow":"","vertical_pos_layout":0},"reverse":false,"source_timerange":{"duration":9466667,"start":533333},"speed":1.0,"state":0,"target_timerange":{"duration":9466667,"start":79733333},"template_id":"","template_scene":"default","track_attribute":0,"track_render_index":0,"uniform_scale":{"on":true,"value":1.0},"visible":true,"volume":1.0},{"caption_info":null,"cartoon":false,"clip":{"alpha":1.0,"flip":{"horizontal":false,"vertical":false},"rotation":0.0,"scale":{"x":1.0,"y":1.0},"transform":{"x":0.0,"y":0.0}},"color_correct_alg_result":"","common_keyframes":[],"desc":"","digital_human_template_group_id":"","enable_adjust":true,"enable_adjust_mask":false,"enable_color_correct_adjust":false,"enable_color_curves":true,"enable_color_match_adjust":false,"enable_color_wheels":true,"enable_hsl":false,"enable_lut":true,"enable_smart_color_adjust":false,"enable_video_mask":true,"extra_material_refs":["0D5586BA-DC9E-4817-9631-F3BDD9617E40","490F5117-8B79-48d7-9A8D-F48A18C9CD44","BFD6E733-851D-4fbf-B678-AAA70D531049","CECD6D81-B11B-4fca-A8A9-E9E365BF0E5A","C57FD705-251E-4f4c-A4C8-ADF6B22AD1CB","13F9C95D-1761-4299-B373-93F27DA0DD88","880B32D9-D97D-48c3-B36C-F6BDE09C7BE7"],"group_id":"","hdr_settings":{"intensity":1.0,"mode":1,"nits":1000},"id":"9EC4E4C7-0ACF-49d5-9E11-E935261B96C0","intensifies_audio":false,"is_loop":false,"is_placeholder":false,"is_tone_modify":false,"keyframe_refs":[],"last_nonzero_volume":1.0,"lyric_keyframes":null,"material_id":"2E219A93-F535-4ab8-BFBB-B598571D62C2","raw_segment_id":"","render_index":0,"render_timerange":{"duration":0,"start":0},"responsive_layout":{"enable":false,"horizontal_pos_layout":0,"size_layout":0,"target_follow":"","vertical_pos_layout":0},"reverse":false,"source_timerange":{"duration":6900000,"start":500000},"speed":1.0,"state":0,"target_timerange":{"duration":6900000,"start":89200000},"template_id":"","template_scene":"default","track_attribute":0,"track_render_index":0,"uniform_scale":{"on":true,"value":1.0},"visible":true,"volume":1.0},{"caption_info":null,"cartoon":false,"clip":{"alpha":1.0,"flip":{"horizontal":false,"vertical":false},"rotation":0.0,"scale":{"x":1.0,"y":1.0},"transform":{"x":0.0,"y":0.0}},"color_correct_alg_result":"","common_keyframes":[],"desc":"","digital_human_template_group_id":"","enable_adjust":true,"enable_adjust_mask":false,"enable_color_correct_adjust":false,"enable_color_curves":true,"enable_color_match_adjust":false,"enable_color_wheels":true,"enable_hsl":false,"enable_lut":true,"enable_smart_color_adjust":false,"enable_video_mask":true,"extra_material_refs":["2DBE0C1E-9712-4c38-A7FD-ED6A99AE5E50","ECB060A3-DAEA-4e80-8FC3-F8F1335C2195","4F7192B8-49F8-4c11-B432-E39FB4F6EFC0","71D33748-A4F5-45c9-A052-86A0799AD709","D2A5B8C0-032E-424e-9DDA-F9D382C8B00A"],"group_id":"","hdr_settings":{"intensity":1.0,"mode":1,"nits":1000},"id":"164F7EAA-6BC3-40e2-8E0C-6D6F08D39E3B","intensifies_audio":false,"is_loop":false,"is_placeholder":false,"is_tone_modify":false,"keyframe_refs":[],"last_nonzero_volume":1.0,"lyric_keyframes":null,"material_id":"3E8CA176-3EE4-47dc-8441-38F452E12D45","raw_segment_id":"","render_index":0,"render_timerange":{"duration":0,"start":0},"responsive_layout":{"enable":false,"horizontal_pos_layout":0,"size_layout":0,"target_follow":"","vertical_pos_layout":0},"reverse":false,"source_timerange":{"duration":3000000,"start":0},"speed":1.0,"state":0,"target_timerange":{"duration":3000000,"start":96100000},"template_id":"","template_scene":"default","track_attribute":0,"track_render_index":0,"uniform_scale":{"on":true,"value":1.0},"visible":true,"volume":1.0}],"type":"video"},{"attribute":0,"flag":0,"id":"FEC1C2E6-6F4F-4db7-90C1-FA0F12470FB5","is_default_name":true,"name":"","segments":[{"caption_info":null,"cartoon":false,"clip":null,"color_correct_alg_result":"","common_keyframes":[],"desc":"","digital_human_template_group_id":"","enable_adjust":false,"enable_adjust_mask":false,"enable_color_correct_adjust":false,"enable_color_curves":true,"enable_color_match_adjust":false,"enable_color_wheels":true,"enable_hsl":false,"enable_lut":false,"enable_smart_color_adjust":false,"enable_video_mask":true,"extra_material_refs":["18697C29-72CF-4698-9B02-2030764C5283","0C914C98-7C0B-4277-B4BB-67A6FBC64CE9","CDA5A054-49C1-4079-9DEB-13300E31F9FB","509A9136-CA4C-492d-A348-B1CEC292436D","08F0FDB5-185F-482d-814E-AD6D44EF886B"],"group_id":"","hdr_settings":null,"id":"03B8EA67-0AF4-4359-877F-DD8B73E069D1","intensifies_audio":false,"is_loop":false,"is_placeholder":false,"is_tone_modify":false,"keyframe_refs":[],"last_nonzero_volume":1.0,"lyric_keyframes":null,"material_id":"6CCB5F4D-EC08-4e3a-8C0D-16D276698F0B","raw_segment_id":"","render_index":0,"render_timerange":{"duration":0,"start":0},"responsive_layout":{"enable":false,"horizontal_pos_layout":0,"size_layout":0,"target_follow":"","vertical_pos_layout":0},"reverse":false,"source_timerange":{"duration":102400000,"start":0},"speed":1.0,"state":0,"target_timerange":{"duration":102400000,"start":0},"template_id":"","template_scene":"default","track_attribute":0,"track_render_index":1,"uniform_scale":null,"visible":true,"volume":1.0}],"type":"audio"}],"uneven_animation_template_info":{"composition":"","content":"","order":"","sub_template_info_list":[]},"update_time":0,"version":360000}